<?xml version="1.0" standalone="no"?>
<svg viewBox="0 0 200 200" xmlns="http://www.w3.org/2000/svg">
  <path fill="#009B79" d="M17.8,-41.7C21.8,-28.5,22.9,-21.2,34.2,-15.2C45.5,-9.3,66.9,-4.6,72.2,3C77.4,10.7,66.6,21.4,55.6,27.9C44.5,34.3,33.4,36.4,24.1,34.1C14.8,31.9,7.4,25.3,-3.5,31.3C-14.3,37.3,-28.7,55.9,-34.2,56C-39.8,56.1,-36.6,37.7,-42.2,25.2C-47.8,12.8,-62.3,6.4,-69.8,-4.3C-77.2,-15,-77.7,-30.1,-72.9,-43.9C-68,-57.7,-57.9,-70.2,-44.9,-78.2C-31.9,-86.1,-15.9,-89.5,-4.5,-81.6C6.9,-73.8,13.8,-54.8,17.8,-41.7Z" transform="translate(100 100)" />
</svg>
