<?xml version="1.0" encoding="utf-8"?>
<!-- Generator: Adobe Illustrator 27.9.3, SVG Export Plug-In . SVG Version: 9.03 Build 53313)  -->
<svg version="1.1" id="Lager_1" xmlns="http://www.w3.org/2000/svg" xmlns:xlink="http://www.w3.org/1999/xlink" x="0px" y="0px" viewBox="0 0 212.1 105" style="enable-background: new 0 0 212.1 105" xml:space="preserve">
<g>
	<g>
		<g>
			<path d="M66.1,9.6c3.6-1,9.3-2,14.5-4.2C87,2.7,93.1,1.9,99.4,5c6.8,3.3,13.6,3.9,20.7,1c6.7-2.7,13-2.1,18.8,2.4
				c5.2,4.1,11,3.8,17.1,2.1c9.7-2.7,11.6-2,16.6,6.9c3.3,6,8.1,8.8,14.7,9.6c10.4,1.2,12.2,3.1,11.5,13.4
				c-0.5,7.2,1.1,12.5,7.4,17.1c8.9,6.5,7.5,16.1-3.2,18.4c-15.1,3.3-26,11.8-36.7,21.9c-7.2,6.8-16.4,8-25.7,6.7
				c-22.9-3.2-45.7-3.9-68.8-1.7c-6.2,0.6-12.6,0-18.9-0.6c-7.7-0.8-13.2-5-16.6-12c-1-1.9-2-3.8-3.2-5.7
				c-4.6-6.9-10.9-10.5-19.4-10.1c-2,0.1-4.5,0.5-5.8-0.5c-2.3-1.8-4.7-4.3-5.4-6.9c-0.4-1.8,1.6-5.5,3.4-6.3
				c8.4-3.7,10.9-10.3,11.2-18.8c0.4-9.3,5-14,13.9-17.3c4.8-1.8,9.9-4.4,13.4-8C50,11,55.7,7.5,66.1,9.6z M45.2,51.3
				c-0.5,0-1.1,0-1.6,0c0.3-1.7,0.7-3.4,1-5.2c1.2-6.9,0.2-13.3-4-19c-0.7-0.9-2-2-3-2c-10.5,0.2-18,7.4-18.5,17.9
				c-0.4,8.7-2.9,15.5-11.6,19.3c-1.5,0.6-3.4,3.7-2.9,4.8c0.8,2.1,3,4,5,5.3c1,0.7,2.9,0.1,4.4,0.1c8.7-0.4,15.5,3.3,20.4,10.4
				c1.5,2.2,2.8,4.5,4,6.9c3,6,7.7,9.9,14.3,10.3c8.1,0.5,16.3,0.9,24.4,0.3c17.7-1.3,35.4-2.1,52.8,1.1
				c17.6,3.2,32.5,0.6,44.7-13.6c5.8-6.8,13.9-10.6,23-12.1c3-0.5,6-1.9,8.7-3.6c4.1-2.6,4.6-5.8,1.8-9.7c-1.1-1.6-2.6-3.2-4.2-4.2
				c-5.8-3.6-7.8-8.8-7.1-15.3c0.2-1.8,0.1-3.7,0.1-5.5c0.2-4.6-1.9-7.1-6.5-7.8c-3.9-0.6-8.1-1.1-11.6-2.8
				c-3.1-1.5-5.2-0.9-7.7,0.6c-4.9,3-7.1,7.3-7,13c0,1.5,0,3,0,4.4c-0.5,0-1,0-1.5,0c0-3.2-1.1-6.9,0.2-9.4c2.5-4.7,6.3-8.7,10-13.5
				c-0.5-0.7-1.7-2.7-2.9-4.7c-3.7-6-5-6.5-11.9-5.1c-3.9,0.8-8.3,2.7-11.7,1.5c-6.5-2.2-8.8,1.6-10.2,5.9c-1.6,4.8-1.9,9.9-2.6,15
				c-0.2,1.4,0.1,2.9,0.2,4.3c-0.5-0.1-1-0.1-1.5-0.2c-3-10.2-0.1-19.1,6.5-27.1c-9.8-10.4-19.7-1.1-29.5-1.1
				c-2,19.2-4.1,26.1-9.4,29.8c1-2.4,1.9-4,2.3-5.6c1.6-7.1,3.2-14.2,4.5-21.3c0.2-1.2-0.9-3.3-1.9-3.9c-10-5.2-19.9-6.2-29.4,1.4
				c6.4,9.3,7.7,19.3,3.1,29.9c-0.5-1.4-0.1-2.7-0.1-4.1c0.2-4.3,0.8-8.7,0.2-12.9c-1.4-9.8-4.7-12.4-14.3-12.7c-1.5,0-3,0-4.5-0.1
				c-4.7-0.3-8.4,1.4-11.5,4.9c-2.4,2.7-5,5.2-7.5,7.9C47.6,32.4,48.9,41.6,45.2,51.3z"></path>
		</g>
	</g>
	<g>
		<path d="M47.7,67.3c-1.3,2.4-2.7,4.3-4.1,5.7S40.8,75,39.7,75c-0.9,0-1.6-0.4-2.2-1.2s-0.8-1.9-0.8-3.2c0-2.7,0.8-5,2.4-7
			c1.6-2,3.4-3,5.5-3c1.3,0,2.6,0.4,4.1,1.2l1.4-6.8c-0.7,0.2-1.4,0.2-1.9,0.2c-0.7,0-1.3-0.2-1.6-0.5s-0.6-1-0.8-2
			c0.6,0.4,1.5,0.6,2.8,0.6c1.6,0,3.1-0.3,4.5-0.9l-2.8,13.9c-0.3,1.6-0.5,2.9-0.5,4c0,1.5,0.4,2.2,1.2,2.2c0.8,0,2.2-1,4.1-2.9
			s3.5-3.9,4.7-6l1,0.7c-1.5,2.8-3.4,5.2-5.6,7.4S51.3,75,49.9,75c-1.7,0-2.6-1.4-2.6-4.1C47.4,69.8,47.5,68.6,47.7,67.3z
			 M48.4,63.9c-1.8-1.2-3.2-1.7-4.4-1.7c-1.3,0-2.4,0.8-3.3,2.3c-0.9,1.6-1.4,3.4-1.4,5.5c0,1.7,0.6,2.6,1.7,2.6
			c1.2,0,3.5-2.7,6.9-8C47.9,64.6,48.1,64.3,48.4,63.9z"></path>
		<path d="M60,69.4c0,2.5,1,3.7,3.1,3.7c1.8,0,3.8-0.9,6-2.6c2.2-1.7,4.2-4,5.9-6.8l1.1,0.6c-1.7,3.1-3.8,5.7-6.5,7.7
			c-2.7,2-5.2,3-7.5,3c-1.5,0-2.7-0.5-3.6-1.5s-1.3-2.3-1.3-4c0-2.5,0.8-4.6,2.4-6.3c1.6-1.7,3.5-2.6,5.8-2.6c1.1,0,2,0.3,2.6,0.8
			s1,1.3,1,2.2c0,1.5-0.9,2.9-2.7,4S62.4,69.4,60,69.4z M60.1,68.2c1.8-0.1,3.3-0.6,4.6-1.5c1.3-0.9,1.9-2,1.9-3.2
			c0-1.1-0.5-1.6-1.4-1.6c-1.2,0-2.2,0.6-3.2,1.8C61,65,60.3,66.5,60.1,68.2z"></path>
		<path d="M83,67.1c-0.8,1.7-2,3.2-3.6,4.5s-3,1.9-4.2,1.9c-0.9,0-1.7-0.3-2.3-0.9s-0.9-1.4-0.9-2.4c0-2.3,0.9-4.5,2.7-6.5
			c1.8-2,3.7-3,5.8-3c1.1,0,2.3,0.3,3.5,0.9c0.2-0.8,0.4-1.3,0.7-1.5s1.1-0.4,2.5-0.5C86.7,60.8,86,64,85.4,69l-0.2,1.3
			c3.6-2.2,6.4-4.4,8.4-6.7l1.1,0.7c-1.9,2.4-5,5.1-9.6,7.9c0,0.3,0,0.6-0.1,0.7c-0.1,2.1-0.4,3.7-0.7,4.7s-0.9,2-1.7,2.9
			c-1.6,1.8-3.6,2.7-6,2.7c-1.3,0-2.3-0.3-3.1-0.9s-1.2-1.4-1.2-2.3c0-0.9,0.3-1.7,1-2.4s2-1.5,3.8-2.5c1.2-0.7,3-1.6,5.3-2.9
			L83,67.1z M83.7,63.8c-1.1-1.2-2.3-1.8-3.6-1.8c-1.3,0-2.4,0.8-3.5,2.4c-1.1,1.6-1.7,3.2-1.7,5c0,1.3,0.5,1.9,1.4,1.9
			c0.9,0,2.1-0.7,3.6-2.2S82.6,65.8,83.7,63.8z M82.5,73.8c-0.5,0.3-1.5,0.9-3,1.7c-2.9,1.7-4.4,3.1-4.4,4.4c0,0.6,0.2,1,0.7,1.4
			s1.1,0.5,1.8,0.5C80.9,81.8,82.5,79.1,82.5,73.8z"></path>
		<path d="M94.9,67.5l-0.6,3c-0.2,1.1-0.3,2-0.3,2.8c0,0.5,0.1,0.9,0.3,1.3c-0.9,0.3-1.5,0.4-2,0.4c-0.7,0-1-0.4-1-1.2
			c0-0.6,0.1-1.6,0.4-3l3.1-15.7c-0.8,0.3-1.4,0.4-2,0.4c-1,0-1.5-0.4-1.5-1.3c0-0.3,0.1-0.8,0.3-1.6c0.6,0.6,1.4,0.9,2.2,0.9
			c1.1,0,2.5-0.4,4-1.1l-2.8,14.3c1.3-1.6,2.8-3,4.4-4.3s2.7-1.9,3.3-1.9c0.4,0,0.8,0.6,1.3,1.7c-0.8,0.1-2,0.6-3.4,1.4
			c-1.4,0.8-2.6,1.7-3.5,2.6c2.1,3.4,4,5.1,5.6,5.1c0.7,0,1.5-0.3,2.2-0.8c0.7-0.5,1.7-1.5,2.8-3c1.1-1.4,2-2.7,2.8-3.9l1.1,0.6
			c-1.5,2.8-3.2,5.1-4.9,6.9s-3.2,2.6-4.5,2.6c-1,0-2.3-0.6-3.8-1.9C97,70.6,95.8,69.1,94.9,67.5z"></path>
		<path d="M112.3,70.2c3-6.4,5.7-9.5,8.1-9.5c1.9,0,2.8,1.9,2.8,5.6l0,1.5c0,1.8,0.1,3,0.3,3.7c0.2,0.7,0.5,1,1,1
			c0.7,0,1.6-0.6,2.5-1.7c0.9-1.2,2.4-3.5,4.5-7l1.1,0.6c-1.9,3.5-3.5,6.1-5,7.8c-1.5,1.7-2.8,2.6-4,2.6c-1.1,0-1.8-0.5-2.3-1.6
			c-0.4-1-0.7-2.8-0.7-5.4l0-1.1c0-1.4-0.1-2.4-0.3-2.9c-0.2-0.6-0.5-0.8-0.9-0.8c-1.1,0-2.9,2.2-5.4,6.7c-0.6,1.1-1,1.8-1.2,2.1
			c-0.7,1.1-1,2-1,2.5c0,0.2,0.1,0.4,0.2,0.6c-0.5,0.2-0.9,0.3-1.2,0.3c-0.9,0-1.3-0.5-1.3-1.4c0-0.3,0.1-1.5,0.3-3.7l0.3-2.8
			c0.1-1.2,0.2-2.1,0.2-2.7c0-0.9-0.2-1.6-0.6-2.1c0.2-0.1,0.5-0.2,0.9-0.3c0.5-0.2,0.9-0.3,1.3-0.3c0.7,0,1,0.5,1,1.4
			c0,0.5-0.1,1.4-0.2,2.6c0,0.3-0.1,0.5-0.1,0.8L112.3,70.2z"></path>
		<path d="M134.4,74.7c-0.4-2.3-1-4.5-1.9-6.7c-0.9-2.2-1.9-3.9-3-5.1c0.6-0.5,1.3-0.8,1.9-0.8c0.6,0,1,0.3,1.4,0.8
			c0.4,0.5,0.8,1.5,1.4,3.1c0.9,2.4,1.6,4.6,2,6.6c2.9-4.5,4.4-8.5,4.6-11.9c1.5,0.2,2.2,0.7,2.2,1.5c0,0.8-0.7,2.5-2,5
			c-1.3,2.5-2.8,4.8-4.3,7c-1.8,2.4-3.5,4.3-5.3,5.7s-3.3,2.1-4.5,2.1c-1.1,0-1.7-0.5-1.7-1.4c0-0.4,0.1-0.8,0.3-1.4
			c0.5,0.3,1,0.4,1.7,0.4C129.8,79.6,132.1,77.9,134.4,74.7z"></path>
		<path d="M153.6,69.7c0.2,0.4,0.3,0.8,0.3,1.1c0,0.8-0.7,1.7-2.1,2.7c-1.4,1-2.7,1.5-3.8,1.5c-1,0-1.8-0.5-2.5-1.4
			c-0.6-0.9-1-2.1-1-3.5c0-1.6,0.4-3.9,1.3-6.8l0.6-2.1h-2.1c-0.9,0-1.6,0.1-2.1,0.4c0.5-0.9,0.9-1.5,1.2-1.7s0.9-0.3,1.6-0.3h1.9
			l0.3-0.9c0.4-1.3,0.9-2.2,1.4-2.7c0.5-0.5,1.4-0.7,2.4-0.7c0.1,0,0.3,0,0.6,0c-0.7,0.8-1.3,2.3-2.1,4.3h6.7c1.2,0,2.1-0.2,2.7-0.5
			c-0.2,0.9-0.5,1.4-0.8,1.7c-0.4,0.3-1,0.4-2,0.4H149c-0.1,0.3-0.1,0.5-0.2,0.6c-1,3.5-1.5,6.1-1.5,7.9c0,2,0.7,2.9,2.1,2.9
			c0.7,0,1.5-0.3,2.4-0.9C152.7,71.2,153.3,70.5,153.6,69.7z"></path>
		<path d="M158,69.4c0,2.5,1,3.7,3.1,3.7c1.8,0,3.8-0.9,6-2.6c2.2-1.7,4.2-4,5.9-6.8l1.1,0.6c-1.7,3.1-3.8,5.7-6.5,7.7
			c-2.7,2-5.2,3-7.5,3c-1.5,0-2.7-0.5-3.6-1.5c-0.9-1-1.3-2.3-1.3-4c0-2.5,0.8-4.6,2.4-6.3c1.6-1.7,3.5-2.6,5.8-2.6
			c1.1,0,2,0.3,2.6,0.8c0.7,0.5,1,1.3,1,2.2c0,1.5-0.9,2.9-2.7,4C162.5,68.9,160.4,69.4,158,69.4z M158.1,68.2
			c1.8-0.1,3.3-0.6,4.6-1.5c1.3-0.9,1.9-2,1.9-3.2c0-1.1-0.5-1.6-1.4-1.6c-1.2,0-2.2,0.6-3.2,1.8C158.9,65,158.3,66.5,158.1,68.2z"></path>
		<path d="M180.3,69.7c0.2,0.4,0.3,0.8,0.3,1.1c0,0.8-0.7,1.7-2.1,2.7c-1.4,1-2.7,1.5-3.8,1.5c-1,0-1.8-0.5-2.5-1.4
			c-0.6-0.9-1-2.1-1-3.5c0-1.6,0.4-3.9,1.3-6.8l0.6-2.1h-2.1c-0.9,0-1.6,0.1-2.1,0.4c0.5-0.9,0.9-1.5,1.2-1.7s0.9-0.3,1.6-0.3h1.9
			l0.3-0.9c0.4-1.3,0.9-2.2,1.4-2.7c0.5-0.5,1.4-0.7,2.4-0.7c0.1,0,0.3,0,0.6,0c-0.7,0.8-1.3,2.3-2.1,4.3h6.7c1.2,0,2.1-0.2,2.7-0.5
			c-0.2,0.9-0.5,1.4-0.8,1.7c-0.4,0.3-1,0.4-2,0.4h-7.1c-0.1,0.3-0.1,0.5-0.2,0.6c-1,3.5-1.5,6.1-1.5,7.9c0,2,0.7,2.9,2.1,2.9
			c0.7,0,1.5-0.3,2.4-0.9C179.3,71.2,179.9,70.5,180.3,69.7z"></path>
	</g>
</g>
</svg>
