<?xml version="1.0" standalone="no"?><svg xmlns="http://www.w3.org/2000/svg" viewBox="0 0 1440 320"><path fill="#FDA403" fill-opacity="1" d="M0,224L34.3,234.7C68.6,245,137,267,206,261.3C274.3,256,343,224,411,224C480,224,549,256,617,256C685.7,256,754,224,823,202.7C891.4,181,960,171,1029,170.7C1097.1,171,1166,181,1234,176C1302.9,171,1371,149,1406,138.7L1440,128L1440,0L1405.7,0C1371.4,0,1303,0,1234,0C1165.7,0,1097,0,1029,0C960,0,891,0,823,0C754.3,0,686,0,617,0C548.6,0,480,0,411,0C342.9,0,274,0,206,0C137.1,0,69,0,34,0L0,0Z"></path></svg>