<?xml version="1.0" standalone="no"?><svg xmlns="http://www.w3.org/2000/svg" viewBox="0 0 1440 320"><path fill="#4c1bc1" fill-opacity="1" d="M0,192L40,176C80,160,160,128,240,101.3C320,75,400,53,480,64C560,75,640,117,720,133.3C800,149,880,139,960,117.3C1040,96,1120,64,1200,69.3C1280,75,1360,117,1400,138.7L1440,160L1440,320L1400,320C1360,320,1280,320,1200,320C1120,320,1040,320,960,320C880,320,800,320,720,320C640,320,560,320,480,320C400,320,320,320,240,320C160,320,80,320,40,320L0,320Z"></path></svg>